<svg preserveAspectRatio="none" viewBox="0 0 55 4" xmlns="http://www.w3.org/2000/svg">
<path d="m.751538 3.5432c.681112-.66658 1.439552-.75333 2.196392-.74073.85741.01483 1.71561.09195 2.57261.14088 1.76449.1001 3.52898.19353 5.29386.28102 3.5638.17647 7.1257.04301 10.6891.18092 3.5967.1394 7.1942.14904 10.7905.31142 3.5237.15942 7.0603.20909 10.5849.17128.9559-.01038 1.9183-.00074 2.8719-.14236.9363-.13866 1.8674-.38335 2.8018-.5613 1.8927-.36184 3.8098-.51681 5.6532.50346.6174.34182.8811-1.44216.2656-1.7825-3.2941-1.8232824-6.8155-.3003-10.1466.34553-1.7328.33588-3.4961.25506-5.2357.24691-1.8318-.00816-3.664-.04301-5.4958-.08305-3.664-.08082-7.3264-.1824-10.9908-.29214-3.6324-.10899-7.2579-.52644-10.889-.70217-2.0646-.1001-4.12878-.20836-6.19296-.32477-1.71641-.097873-3.69164-.696983-5.273026.85121-.568531.55611-.064105 2.1525.504024 1.59639z"/>
</svg>