<svg preserveAspectRatio="none" viewBox="0 0 97 5" xmlns="http://www.w3.org/2000/svg">
<path d="m1.57049 3.6485c6.08788.0777 12.17041.0757 18.25701.10226 3.1004.01329 6.1948-.09628 9.2958-.03253 3.0274.06242 6.054.1255 9.0814.15206 12.0927.10691 24.2114.41502 36.3021.10027 6.8708-.17863 13.7389-.51396 20.5938-1.02195 1.5206-.11289 1.5764-2.502086.0418-2.388536-12.118.899766-24.2878 1.226476-36.435 1.443616-6.052.10823-12.1067.11023-18.158-.002-6.0514-.11222-12.1399.02789-18.1959-.3008-6.9007-.37452-13.83188-.35327-20.74117-.44092-1.5365817-.01926-1.5817363 2.36861-.04184 2.38853z"/>
</svg>