<svg preserveAspectRatio="none" viewBox="0 0 77 5" xmlns="http://www.w3.org/2000/svg">
<path d="m2.35171 4.44785c.73225-.50189 1.81136-.56228 2.69226-.67462 1.2195-.15521 2.40116-.31707 3.63442-.37445 2.33651-.10871 4.67291-.05918 7.01141-.06824 4.867-.01873 9.7333.03321 14.6003.03503 4.8085.0012 9.6177.02717 14.4255.02838 4.8092.00181 9.6143-.16971 14.4235-.16186 2.7466.00423 5.4953-.09482 8.2398-.17394 2.7095-.07791 5.4844-.1075 8.1608-.51094 1.1452-.17273.8093-1.605908-.2264-1.687442-2.4955-.197492-5.0473-.057979-7.5476.016307-2.461.073078-4.9227.128645-7.3831.215615-4.9805.17635-9.959.26151-14.9423.36961-9.8441.2138-19.6971.34547-29.544.10268-2.6654-.06583-5.3419-.14133-8.00797-.05859-2.47135.0767-5.20697-.02415-7.256448 1.37883-.531295.36358-.455592 1.14147-.030281 1.53585.498949.46323 1.226379.38592 1.750109.02657z"/>
</svg>