<svg preserveAspectRatio="none" viewBox="0 0 80 4" xmlns="http://www.w3.org/2000/svg">
<path d="m1.42249 3.35279c4.98974-.02267 9.99211.05466 14.97791-.13933 4.9857-.19399 9.9901-.37064 14.9779-.36131 4.9877.00933 9.9848.25799 14.9779.27732 4.8817.01866 9.7635-.024 14.6452-.04467 5.6584-.024 11.3168-.03733 16.9752-.07666 1.6005-.01133 1.6039-2.491206 0-2.487873-9.9842.019332-19.9724.026667-29.9558.141327-4.9938.057331-9.9842.300651-14.9779.394646-4.8758.092-9.7702-.00667-14.6453-.134659-5.6584-.147993-11.31474-.089329-16.97511-.064664-1.605922.006666-1.609255 2.503203 0 2.495873z"/>
</svg>