<svg preserveAspectRatio="none" viewBox="0 0 61 4" xmlns="http://www.w3.org/2000/svg">
<path d="m1.2189 2.78963c3.27916 1.28527 6.83365 1.11261 10.2655.7073 3.7211-.43931 7.3836-.7693 11.1374-.72063 3.9318.05066 7.8569.26065 11.7901.27998 3.8824.01933 7.7642.03867 11.6467.058 4.4438.022 8.8722-.08333 13.3106-.13732 1.348-.01667 1.348-2.064564 0-2.093896-3.8838-.083329-7.7582-.237324-11.6467-.25399-3.8825-.016666-7.7643-.033329-11.6467-.050662-3.8825-.017332-7.7596.049996-11.6428.142658-3.7324.089328-7.4496.077997-11.1621.53464-3.83642.47198-7.86022 1.27527-11.58736-.14999-1.053278-.402647-1.497922 1.2786-.46397 1.68391z"/>
</svg>