<svg preserveAspectRatio="none" viewBox="0 0 78 4" xmlns="http://www.w3.org/2000/svg">
<path d="m1.42651 3.68881c1.21994-.016 2.43188.09133 3.64982.09799 1.2706.00734 2.54586-.05 3.8158-.08266 2.43657-.062 4.87377-.06399 7.30027-.28665 4.9038-.44998 9.8495-.39131 14.7693-.45664 4.8684-.064 9.7361-.09067 14.6045-.07001 2.4339.01 4.8698-.00799 7.3023.08401 2.4326.09199 4.8618.26598 7.3023.29797 5.5318.07333 11.0635.16067 16.5945.28133 1.6066.03533 1.6066-2.46188 0-2.49587-4.9224-.104665-9.8455-.191328-14.7686-.229992-4.923-.038665-9.8428.210652-14.7705.222652-4.8684.012-9.7369.04866-14.6046.08266-4.8678.034-9.7395.22-14.6033.09734-1.3279-.03334-2.6545-.166-3.9824-.144-1.438.024-2.8759.06867-4.31381.10667-1.32727.03466-2.6552.07065-3.9818.12132-1.44259.05533-2.87118.27532-4.31311.34665-1.295267.06399-1.313267 2.04456-.00067 2.02723z"/>
</svg>