<svg preserveAspectRatio="none" viewBox="0 0 72 5" xmlns="http://www.w3.org/2000/svg">
<path d="m1.50896 4.01128c2.30255-.04867 4.62376-.018 6.92231-.15933 2.19923-.13532 4.38913-.28397 6.59303-.36664 4.5051-.16799 9.0095-.21732 13.5159-.32331 8.8063-.20799 17.6611-.57665 26.4414.30664 2.5058.25199 4.973.7053 7.4922.85796 2.4926.15132 4.9871.14866 7.4697-.14732.6693-.08 1.2479-.51665 1.2479-1.24794 0-.61264-.574-1.3286-1.2479-1.24794-4.4178.52798-8.9116.11066-13.3327-.18599-2.1792-.14599-4.3484-.38331-6.5323-.47664-2.3032-.097996-4.6091-.107331-6.9137-.080665-8.8322.101995-17.6597.460645-26.4919.526645-2.5293.01867-5.0551.02933-7.58166-.05534-2.52654-.08466-5.05974.05067-7.58161.104-1.6039212.034-1.609921 2.52987-.00067 2.49587z"/>
</svg>